<?xml version="1.0" standalone="no"?>
<!DOCTYPE svg PUBLIC "-//W3C//DTD SVG 20010904//EN"
 "http://www.w3.org/TR/2001/REC-SVG-20010904/DTD/svg10.dtd">
<svg version="1.0" xmlns="http://www.w3.org/2000/svg"
 width="130.000000pt" height="130.000000pt" viewBox="0 0 130.000000 130.000000"
 preserveAspectRatio="xMidYMid meet">

<g transform="translate(0.000000,130.000000) scale(0.100000,-0.100000)"
fill="#000000" stroke="none">
<path d="M490 1274 c-136 -36 -267 -123 -347 -228 -96 -128 -128 -226 -128
-391 0 -165 33 -266 127 -386 124 -160 303 -248 505 -249 112 0 172 14 281 66
161 77 277 214 332 389 33 105 32 262 -3 370 -37 113 -90 196 -176 277 -79 74
-173 126 -276 152 -75 20 -241 20 -315 0z m124 -79 c-19 -14 -19 -14 1 -15 17
0 17 -2 5 -10 -8 -5 -18 -10 -22 -10 -13 0 -9 38 5 43 25 11 30 7 11 -8z m115
-29 c-14 -30 -33 -30 -36 0 -3 18 -2 18 6 -1 8 -19 9 -18 21 8 7 15 15 25 17
23 2 -2 -2 -15 -8 -30z m-185 15 c3 -4 -6 -6 -19 -3 -16 3 -25 0 -25 -9 0 -7
-3 -10 -6 -6 -3 3 -3 10 1 16 7 13 42 15 49 2z m340 -30 c4 -5 -4 -7 -15 -4
-15 4 -27 0 -35 -12 -8 -11 -14 -14 -14 -9 0 26 51 46 64 25z m-359 -23 c6 -4
2 -8 -7 -8 -10 0 -18 7 -18 17 0 9 3 12 8 7 4 -5 12 -12 17 -16z m-117 -37
c-7 -2 -19 -10 -25 -19 -12 -14 -13 -14 -13 1 0 9 5 17 10 17 6 0 10 5 10 11
0 6 -7 9 -15 5 -9 -3 -15 0 -15 10 0 13 4 13 30 -3 18 -10 25 -19 18 -22z
m562 12 c0 -3 -7 -3 -15 1 -9 3 -15 0 -15 -8 0 -8 -6 -16 -12 -19 -10 -3 -10
-8 1 -23 14 -18 14 -18 -4 -2 -17 16 -17 18 -2 42 11 16 23 23 32 20 8 -4 15
-8 15 -11z m-633 -77 c-7 -19 -38 -21 -55 -4 -19 19 -14 33 6 15 38 -34 57
-12 25 27 -16 19 -15 19 6 -1 15 -13 21 -28 18 -37z m701 -14 c12 9 12 7 -2
-10 -27 -31 -37 -27 -29 11 6 30 5 31 -13 17 -18 -14 -17 -13 1 9 l20 23 3
-31 c3 -29 5 -31 20 -19z m-225 4 c76 -36 156 -116 193 -191 27 -55 29 -69 29
-170 0 -101 -2 -115 -28 -168 -84 -170 -286 -263 -462 -212 -289 82 -388 431
-186 648 88 94 173 129 306 123 73 -2 101 -8 148 -30z m-573 -23 c0 -9 -3 -13
-7 -10 -3 4 -13 1 -21 -6 -13 -10 -14 -9 -3 11 14 26 31 29 31 5z m857 -42
c-7 -2 -21 -8 -32 -14 -16 -8 -15 -4 5 14 15 15 28 20 32 14 4 -5 2 -12 -5
-14z m-829 11 c15 12 16 11 3 -4 -7 -10 -17 -18 -22 -18 -5 0 -9 8 -8 18 0 11
2 12 6 4 4 -10 8 -10 21 0z m-50 -63 c-10 -5 -18 -17 -18 -26 0 -14 -2 -14
-20 2 -29 26 -25 35 18 35 30 -1 34 -3 20 -11z m932 -21 c10 -21 10 -21 -3 -5
-8 9 -18 17 -22 17 -4 0 -4 -8 0 -17 5 -14 4 -15 -6 -6 -9 9 -16 10 -26 2 -7
-7 -13 -7 -13 -2 0 9 35 31 52 32 4 1 12 -9 18 -21z m-1017 -63 c-3 -9 -8 -14
-10 -11 -3 3 -2 9 2 15 9 16 15 13 8 -4z m57 0 c0 -1 -9 -5 -19 -8 -13 -3 -18
-1 -14 9 4 10 33 10 33 -1z m990 -25 c0 -11 -4 -20 -10 -20 -5 0 -7 7 -4 15 4
8 1 15 -5 15 -6 0 -11 -6 -11 -14 0 -8 -7 -17 -16 -20 -14 -5 -15 -4 -5 8 7 8
10 20 6 26 -4 6 4 10 19 10 19 0 26 -5 26 -20z m-1005 -20 c-3 -5 -14 -10 -23
-9 -14 0 -13 2 3 9 27 11 27 11 20 0z m70 -175 c15 -124 111 -250 233 -308 62
-30 75 -32 172 -32 99 0 109 2 172 34 120 60 212 183 227 305 l6 51 108 3 107
3 0 -44 c0 -62 -25 -151 -67 -237 -50 -103 -167 -220 -274 -273 -243 -120
-530 -74 -719 113 -106 106 -169 235 -186 379 l-7 61 111 0 110 0 7 -55z"/>
<path d="M553 1016 c-58 -19 -104 -49 -153 -102 -53 -57 -80 -120 -86 -192 -3
-54 -3 -55 6 -15 29 133 148 233 277 233 56 0 83 14 83 43 0 47 -44 59 -127
33z"/>
<path d="M865 905 c64 -64 89 -122 89 -211 0 -61 -4 -81 -31 -133 -33 -64 -34
-85 -2 -102 73 -39 120 168 69 304 -23 60 -88 141 -140 171 -27 16 -26 12 15
-29z"/>
<path d="M337 512 c-22 -24 -22 -29 9 -73 60 -87 202 -148 313 -134 50 6 157
43 148 51 -1 2 -25 -4 -52 -12 -65 -20 -150 -12 -213 20 -46 24 -122 95 -122
116 0 15 -38 50 -53 50 -8 0 -21 -8 -30 -18z"/>
<path d="M175 890 c4 -6 11 -8 16 -5 14 9 11 15 -7 15 -8 0 -12 -5 -9 -10z"/>
<path d="M1146 537 c3 -10 9 -15 12 -12 3 3 0 11 -7 18 -10 9 -11 8 -5 -6z"/>
<path d="M140 490 c-9 -6 -10 -10 -3 -10 6 0 15 5 18 10 8 12 4 12 -15 0z"/>
<path d="M170 420 c6 -11 8 -26 4 -33 -5 -7 0 -6 10 3 11 8 14 16 7 18 -19 6
-12 20 12 25 16 3 13 5 -11 6 -30 1 -32 -1 -22 -19z"/>
<path d="M1045 380 c-3 -5 -1 -10 4 -10 6 0 11 5 11 10 0 6 -2 10 -4 10 -3 0
-8 -4 -11 -10z"/>
<path d="M266 347 c3 -10 9 -15 12 -12 3 3 0 11 -7 18 -10 9 -11 8 -5 -6z"/>
<path d="M1023 314 c9 -11 14 -24 10 -27 -3 -4 -1 -7 5 -7 19 0 14 15 -10 36
-23 19 -23 19 -5 -2z"/>
<path d="M990 275 c27 -29 42 -35 17 -7 -10 10 -14 22 -10 25 3 4 -2 7 -12 7
-17 0 -16 -3 5 -25z"/>
<path d="M270 261 c0 -6 4 -13 10 -16 6 -3 7 1 4 9 -7 18 -14 21 -14 7z"/>
<path d="M319 253 c-13 -16 -12 -17 4 -4 16 13 21 21 13 21 -2 0 -10 -8 -17
-17z"/>
<path d="M914 249 c-3 -6 -2 -15 3 -20 5 -5 9 -1 9 11 0 23 -2 24 -12 9z"/>
<path d="M369 223 c-13 -17 -13 -17 5 -3 18 14 19 13 14 -7 -4 -13 -2 -23 3
-23 5 0 9 11 9 25 0 29 -12 32 -31 8z"/>
<path d="M500 180 c0 -5 7 -7 15 -4 8 4 15 8 15 10 0 2 -7 4 -15 4 -8 0 -15
-4 -15 -10z"/>
<path d="M838 158 c5 -5 16 -8 23 -6 8 3 3 7 -10 11 -17 4 -21 3 -13 -5z"/>
<path d="M705 120 c3 -5 8 -10 11 -10 2 0 4 5 4 10 0 6 -5 10 -11 10 -5 0 -7
-4 -4 -10z"/>
</g>
</svg>
